<svg width="40" height="54" viewBox="0 0 40 54" fill="none" xmlns="http://www.w3.org/2000/svg">
<path d="M19.8281 38.4545L19.8281 38.9545L19.8281 38.9545L19.8281 38.4545ZM19.8281 41.1322L19.3514 41.2831C19.4172 41.4909 19.61 41.6322 19.8281 41.6322C20.0461 41.6322 20.239 41.4909 20.3048 41.2831L19.8281 41.1322ZM17.8867 38.9868L17.7329 39.4625L17.7329 39.4625L17.8867 38.9868ZM15.6554 16.4057C15.3819 16.4441 15.1913 16.6969 15.2297 16.9703C15.2681 17.2438 15.5209 17.4344 15.7944 17.396L15.6554 16.4057ZM23.862 17.396C24.1355 17.4343 24.3882 17.2436 24.4265 16.9701C24.4647 16.6966 24.2741 16.4439 24.0006 16.4056L23.862 17.396ZM12.8684 17.9526C12.9563 18.2144 13.2398 18.3553 13.5016 18.2674C13.7633 18.1794 13.9043 17.896 13.8163 17.6342L12.8684 17.9526ZM10.0934 11.5313C9.92121 11.3154 9.60662 11.2799 9.39071 11.452C9.1748 11.6242 9.13932 11.9388 9.31147 12.1547L10.0934 11.5313ZM13.2311 18.2861C13.5003 18.3475 13.7683 18.1791 13.8298 17.9099C13.8913 17.6407 13.7229 17.3726 13.4537 17.3112L13.2311 18.2861ZM8.7207 18.5383C8.50848 18.715 8.47966 19.0303 8.65634 19.2425C8.83302 19.4547 9.14829 19.4835 9.36051 19.3069L8.7207 18.5383ZM12.9514 18.0434C13.1442 18.241 13.4608 18.2449 13.6584 18.0521C13.8561 17.8593 13.86 17.5427 13.6672 17.3451L12.9514 18.0434ZM15.2336 17.0412C15.3203 17.3034 15.6031 17.4457 15.8652 17.359C16.1274 17.2724 16.2697 16.9896 16.1831 16.7274L15.2336 17.0412ZM6.91647 5.08033C6.72349 4.88281 6.40693 4.87913 6.20941 5.07211C6.01189 5.26509 6.00821 5.58165 6.20119 5.77917L6.91647 5.08033ZM6.91677 5.87804C7.10958 5.68036 7.10563 5.3638 6.90795 5.17099C6.71027 4.97818 6.39371 4.98212 6.2009 5.17981L6.91677 5.87804ZM2.68515 18.5807C2.66353 18.856 2.86917 19.0967 3.14447 19.1183C3.41976 19.1399 3.66046 18.9343 3.68208 18.659L2.68515 18.5807ZM3.68342 18.7095C3.73296 18.4379 3.5529 18.1775 3.28124 18.1279C3.00957 18.0784 2.74919 18.2585 2.69964 18.5301L3.68342 18.7095ZM14.2358 53L14.1298 53.4886C14.3411 53.5345 14.5579 53.4393 14.6672 53.2527C14.7765 53.0662 14.7535 52.8305 14.6102 52.6686L14.2358 53ZM11.9395 47.0536C11.8687 46.7867 11.5949 46.6277 11.328 46.6985C11.0611 46.7694 10.9021 47.0431 10.9729 47.31L11.9395 47.0536ZM25.8729 17.6342C25.785 17.896 25.9259 18.1794 26.1877 18.2674C26.4495 18.3553 26.733 18.2144 26.8209 17.9526L25.8729 17.6342ZM30.3778 12.1547C30.5499 11.9388 30.5145 11.6242 30.2985 11.452C30.0826 11.2799 29.768 11.3154 29.5959 11.5313L30.3778 12.1547ZM26.2356 17.3112C25.9664 17.3726 25.798 17.6407 25.8594 17.9099C25.9209 18.1791 26.189 18.3475 26.4582 18.2861L26.2356 17.3112ZM30.3287 19.3069C30.541 19.4835 30.8562 19.4547 31.0329 19.2425C31.2096 19.0303 31.1808 18.715 30.9686 18.5383L30.3287 19.3069ZM26.0206 17.3466C25.8286 17.545 25.8339 17.8616 26.0323 18.0536C26.2308 18.2456 26.5473 18.2403 26.7393 18.0419L26.0206 17.3466ZM23.4897 16.7274C23.403 16.9896 23.5453 17.2724 23.8075 17.359C24.0697 17.4457 24.3525 17.3034 24.4391 17.0412L23.4897 16.7274ZM33.4715 5.77917C33.6645 5.58165 33.6608 5.26509 33.4633 5.07211C33.2658 4.87913 32.9492 4.88281 32.7562 5.08033L33.4715 5.77917ZM33.4718 5.17981C33.279 4.98212 32.9624 4.97818 32.7648 5.17099C32.5671 5.3638 32.5631 5.68036 32.756 5.87804L33.4718 5.17981ZM35.9906 18.659C36.0123 18.9343 36.253 19.1399 36.5282 19.1183C36.8035 19.0967 37.0092 18.856 36.9876 18.5807L35.9906 18.659ZM36.9731 18.5301C36.9235 18.2585 36.6631 18.0784 36.3915 18.1279C36.1198 18.1775 35.9397 18.4379 35.9893 18.7095L36.9731 18.5301ZM25.4369 53L25.0625 52.6686C24.9192 52.8305 24.8962 53.0662 25.0055 53.2527C25.1148 53.4393 25.3316 53.5345 25.5429 53.4886L25.4369 53ZM28.6998 47.31C28.7706 47.0431 28.6116 46.7694 28.3447 46.6985C28.0778 46.6277 27.804 46.7867 27.7332 47.0536L28.6998 47.31ZM27.4546 42.0031C27.5338 41.7385 27.3837 41.4598 27.1192 41.3805C26.8547 41.3013 26.5759 41.4514 26.4967 41.7159L27.4546 42.0031ZM19.8281 43.8099L19.7749 44.3071L19.8281 44.3128L19.8813 44.3071L19.8281 43.8099ZM13.1595 41.7159C13.0802 41.4514 12.8015 41.3013 12.537 41.3805C12.2725 41.4598 12.1223 41.7385 12.2016 42.0031L13.1595 41.7159ZM24.1351 45.345C24.2708 45.1045 24.186 44.7995 23.9455 44.6638C23.705 44.528 23.4 44.6129 23.2643 44.8533L24.1351 45.345ZM16.3919 44.8533C16.2561 44.6129 15.9511 44.528 15.7107 44.6638C15.4702 44.7995 15.3853 45.1045 15.5211 45.345L16.3919 44.8533ZM5.96465 5.9106C6.08415 6.15954 6.38284 6.26447 6.63178 6.14497C6.88073 6.02546 6.98566 5.72677 6.86615 5.47783L5.96465 5.9106ZM5.99451 1.05142C6.02291 0.776739 5.82326 0.531048 5.54858 0.502651C5.2739 0.474254 5.02821 0.673904 4.99981 0.948582L5.99451 1.05142ZM33.0547 5.47783C32.9352 5.72677 33.0402 6.02546 33.2891 6.14497C33.5381 6.26447 33.8367 6.15954 33.9562 5.9106L33.0547 5.47783ZM34.9211 0.948582C34.8927 0.673904 34.647 0.474254 34.3723 0.502651C34.0976 0.531048 33.898 0.776739 33.9264 1.05142L34.9211 0.948582ZM6.15396 5.5268C6.28058 5.7722 6.58217 5.86848 6.82757 5.74185C7.07297 5.61523 7.16925 5.31364 7.04262 5.06824L6.15396 5.5268ZM6.19164 1.05522C6.22214 0.78077 6.02437 0.533558 5.74992 0.503059C5.47547 0.47256 5.22825 0.670324 5.19775 0.944777L6.19164 1.05522ZM32.8121 5.06824C32.6855 5.31364 32.7817 5.61523 33.0271 5.74185C33.2725 5.86848 33.5741 5.7722 33.7008 5.5268L32.8121 5.06824ZM34.657 0.944777C34.6265 0.670324 34.3792 0.47256 34.1048 0.503059C33.8303 0.533558 33.6326 0.78077 33.6631 1.05522L34.657 0.944777ZM7.80504 30.8522C7.52891 30.8501 7.30336 31.0722 7.30126 31.3484C7.29917 31.6245 7.52132 31.8501 7.79745 31.8522L7.80504 30.8522ZM16.7651 35.6497C16.7651 35.9258 16.989 36.1497 17.2651 36.1497C17.5413 36.1497 17.7651 35.9258 17.7651 35.6497H16.7651ZM17.7651 34.5257C17.7651 34.2496 17.5413 34.0257 17.2651 34.0257C16.989 34.0257 16.7651 34.2496 16.7651 34.5257H17.7651ZM9.89963 32.7C9.73394 32.4791 9.42054 32.4343 9.19963 32.6C8.97871 32.7657 8.93394 33.0791 9.09963 33.3L9.89963 32.7ZM15.2874 32C15.2874 31.7239 15.0636 31.5 14.7874 31.5C14.5113 31.5 14.2874 31.7239 14.2874 32H15.2874ZM12.8114 32C12.8114 31.7239 12.5876 31.5 12.3114 31.5C12.0353 31.5 11.8114 31.7239 11.8114 32H12.8114ZM32.2018 31.8522C32.4779 31.8501 32.7001 31.6245 32.698 31.3484C32.6959 31.0722 32.4703 30.8501 32.1942 30.8522L32.2018 31.8522ZM22.2341 35.6497C22.2341 35.9258 22.458 36.1497 22.7341 36.1497C23.0103 36.1497 23.2341 35.9258 23.2341 35.6497H22.2341ZM23.2341 34.5257C23.2341 34.2496 23.0103 34.0257 22.7341 34.0257C22.458 34.0257 22.2341 34.2496 22.2341 34.5257H23.2341ZM30.8996 33.3C31.0653 33.0791 31.0205 32.7657 30.7996 32.6C30.5787 32.4343 30.2653 32.4791 30.0996 32.7L30.8996 33.3ZM25.7487 32C25.7487 31.7239 25.5249 31.5 25.2487 31.5C24.9726 31.5 24.7487 31.7239 24.7487 32H25.7487ZM28.2247 32C28.2247 31.7239 28.0009 31.5 27.7247 31.5C27.4486 31.5 27.2247 31.7239 27.2247 32H28.2247ZM19.8281 38.9545C20.3332 38.9545 20.7917 39.0639 21.1058 39.1765C21.2646 39.2334 21.3719 39.286 21.4227 39.3163C21.4583 39.3375 21.4344 39.3288 21.3974 39.288C21.3949 39.2852 21.2897 39.1792 21.281 38.9984C21.2753 38.8813 21.3122 38.7554 21.4004 38.6539C21.4782 38.5642 21.5673 38.5266 21.6157 38.511L21.9232 39.4625C21.9792 39.4444 22.0739 39.4034 22.1554 39.3096C22.2472 39.2039 22.2858 39.073 22.2798 38.9501C22.2705 38.7577 22.1571 38.6371 22.1389 38.617C22.0707 38.5417 21.9863 38.4881 21.9352 38.4576C21.8125 38.3844 21.6419 38.3063 21.4433 38.2352C21.0428 38.0916 20.4694 37.9545 19.8281 37.9545L19.8281 38.9545ZM21.6157 38.511C21.4327 38.5701 19.9587 39.0621 19.3514 40.9814L20.3048 41.2831C20.7675 39.8206 21.8616 39.4824 21.9232 39.4625L21.6157 38.511ZM19.8281 37.9545C19.1867 37.9545 18.6134 38.0916 18.2129 38.2352C18.0143 38.3063 17.8436 38.3844 17.721 38.4576C17.6699 38.4881 17.5854 38.5417 17.5173 38.617C17.4991 38.6371 17.3857 38.7577 17.3763 38.9501C17.3704 39.073 17.409 39.2039 17.5007 39.3096C17.5822 39.4034 17.6769 39.4444 17.7329 39.4625L18.0405 38.511C18.0888 38.5266 18.1779 38.5642 18.2558 38.6539C18.3439 38.7554 18.3808 38.8813 18.3752 38.9984C18.3664 39.1793 18.2613 39.2852 18.2587 39.288C18.2218 39.3288 18.1979 39.3375 18.2335 39.3163C18.2842 39.286 18.3916 39.2334 18.5504 39.1765C18.8645 39.0639 19.3229 38.9545 19.8281 38.9545L19.8281 37.9545ZM17.7329 39.4625C17.7946 39.4824 18.8886 39.8206 19.3514 41.2831L20.3048 40.9814C19.6975 39.0621 18.2234 38.5701 18.0405 38.511L17.7329 39.4625ZM15.7944 17.396C18.835 16.9692 20.7041 16.9542 23.862 17.396L24.0006 16.4056C20.7489 15.9507 18.7863 15.9663 15.6554 16.4057L15.7944 17.396ZM13.8163 17.6342C13.8047 17.5995 13.793 17.5651 13.7813 17.5309L12.8355 17.8557C12.8465 17.8878 12.8575 17.9201 12.8684 17.9526L13.8163 17.6342ZM13.7813 17.5309C13.0514 15.4056 12.0658 14.0051 10.0934 11.5313L9.31147 12.1547C11.2736 14.6156 12.165 15.9031 12.8355 17.8557L13.7813 17.5309ZM13.4537 17.3112C12.153 17.0142 10.9629 17.333 10.1209 17.7049C9.69717 17.892 9.35198 18.0967 9.11165 18.2552C8.99121 18.3347 8.8963 18.4031 8.83021 18.4528C8.79714 18.4776 8.77122 18.4978 8.75284 18.5123C8.74366 18.5196 8.73635 18.5255 8.73098 18.5299C8.72829 18.5321 8.72609 18.5339 8.72437 18.5353C8.72351 18.536 8.72278 18.5366 8.72217 18.5371C8.72186 18.5374 8.72159 18.5376 8.72134 18.5378C8.72122 18.5379 8.72106 18.538 8.721 18.5381C8.72084 18.5382 8.7207 18.5383 9.04061 18.9226C9.36051 19.3069 9.36038 19.307 9.36026 19.3071C9.36023 19.3071 9.36011 19.3072 9.36005 19.3072C9.35993 19.3073 9.35983 19.3074 9.35977 19.3075C9.35964 19.3076 9.35963 19.3076 9.35973 19.3075C9.35995 19.3073 9.36063 19.3068 9.36177 19.3058C9.36405 19.304 9.36817 19.3007 9.37409 19.296C9.38594 19.2866 9.40493 19.2718 9.43067 19.2524C9.4822 19.2137 9.56051 19.1571 9.66239 19.0899C9.86671 18.9551 10.1627 18.7796 10.5249 18.6196C11.2546 18.2973 12.2154 18.0542 13.2311 18.2861L13.4537 17.3112ZM13.6672 17.3451L13.6663 17.3441L12.9505 18.0424L12.9514 18.0434L13.6672 17.3451ZM16.1831 16.7274C15.8941 15.8531 15.1456 14.6848 14.2398 13.4642C13.3219 12.2271 12.2012 10.8828 11.1186 9.64369C10.0351 8.40348 8.98507 7.26317 8.20623 6.43323C7.81667 6.01813 7.49467 5.68034 7.26987 5.44615C7.15746 5.32905 7.06934 5.23782 7.00921 5.17576C6.97914 5.14473 6.95607 5.12099 6.94046 5.10495C6.93266 5.09693 6.92672 5.09083 6.9227 5.08671C6.92069 5.08465 6.91916 5.08309 6.91812 5.08202C6.9176 5.08149 6.9172 5.08108 6.91693 5.0808C6.91679 5.08066 6.91668 5.08054 6.91661 5.08047C6.91652 5.08039 6.91647 5.08033 6.55883 5.42975C6.20119 5.77917 6.2012 5.77918 6.20124 5.77922C6.2013 5.77928 6.20137 5.77935 6.20148 5.77946C6.20169 5.77968 6.20203 5.78003 6.2025 5.7805C6.20342 5.78145 6.20483 5.7829 6.20672 5.78484C6.2105 5.78872 6.21621 5.79457 6.22377 5.80234C6.2389 5.81789 6.26147 5.84112 6.29102 5.87162C6.35014 5.93263 6.43718 6.02273 6.54844 6.13864C6.77099 6.37049 7.09038 6.70552 7.47703 7.11754C8.25059 7.94184 9.29216 9.07298 10.3655 10.3016C11.4398 11.5313 12.5413 12.8532 13.4367 14.0601C14.3444 15.2832 15.0006 16.3363 15.2336 17.0412L16.1831 16.7274ZM6.2009 5.17981C4.01167 7.42431 3.30979 10.6263 2.68515 18.5807L3.68208 18.659C4.3128 10.6271 5.02259 7.82004 6.91677 5.87804L6.2009 5.17981ZM2.69964 18.5301C1.73253 23.8331 0.997411 28.4487 0.676667 32.4373C0.356126 36.4234 0.446457 39.8142 1.14895 42.6582C1.85442 45.5143 3.17795 47.8202 5.31116 49.6173C7.43576 51.4072 10.3295 52.6639 14.1298 53.4886L14.3418 52.5114C10.6362 51.7072 7.91314 50.5018 5.95546 48.8525C4.00641 47.2105 2.78217 45.1 2.11977 42.4184C1.45438 39.7246 1.35672 36.4561 1.67345 32.5175C1.98997 28.5814 2.71737 24.0067 3.68342 18.7095L2.69964 18.5301ZM14.6102 52.6686C13.536 51.4552 13.0213 50.5925 12.7006 49.7877C12.3678 48.9526 12.2416 48.192 11.9395 47.0536L10.9729 47.31C11.2476 48.3452 11.4096 49.2495 11.7716 50.1579C12.1457 51.0967 12.7325 52.0562 13.8614 53.3314L14.6102 52.6686ZM26.8209 17.9526C26.8318 17.9201 26.8428 17.8878 26.8538 17.8557L25.908 17.5309C25.8962 17.5652 25.8845 17.5996 25.8729 17.6342L26.8209 17.9526ZM26.8538 17.8557C27.5243 15.9031 28.4156 14.6156 30.3778 12.1547L29.5959 11.5313C27.6234 14.0051 26.6378 15.4056 25.908 17.5309L26.8538 17.8557ZM26.4582 18.2861C27.4738 18.0542 28.4346 18.2973 29.1644 18.6196C29.5266 18.7796 29.8225 18.9551 30.0269 19.0899C30.1287 19.1571 30.207 19.2137 30.2586 19.2524C30.2843 19.2718 30.3033 19.2866 30.3152 19.296C30.3211 19.3007 30.3252 19.304 30.3275 19.3058C30.3286 19.3068 30.3293 19.3073 30.3295 19.3075C30.3296 19.3076 30.3296 19.3076 30.3295 19.3075C30.3294 19.3074 30.3293 19.3073 30.3292 19.3072C30.3291 19.3072 30.329 19.3071 30.329 19.3071C30.3289 19.307 30.3287 19.3069 30.6486 18.9226C30.9686 18.5383 30.9684 18.5382 30.9683 18.5381C30.9682 18.538 30.968 18.5379 30.9679 18.5378C30.9677 18.5376 30.9674 18.5374 30.9671 18.5371C30.9665 18.5366 30.9657 18.536 30.9649 18.5353C30.9632 18.5339 30.961 18.5321 30.9583 18.5299C30.9529 18.5255 30.9456 18.5196 30.9364 18.5123C30.918 18.4978 30.8921 18.4776 30.859 18.4528C30.7929 18.4031 30.698 18.3347 30.5776 18.2552C30.3373 18.0967 29.9921 17.892 29.5684 17.7049C28.7264 17.333 27.5363 17.0142 26.2356 17.3112L26.4582 18.2861ZM26.7393 18.0419L26.7402 18.0409L26.0215 17.3456L26.0206 17.3466L26.7393 18.0419ZM24.4391 17.0412C24.6721 16.3363 25.3283 15.2832 26.236 14.0601C27.1315 12.8532 28.2329 11.5313 29.3072 10.3016C30.3806 9.07298 31.4221 7.94184 32.1957 7.11754C32.5823 6.70552 32.9017 6.37049 33.1243 6.13864C33.2355 6.02273 33.3226 5.93263 33.3817 5.87162C33.4112 5.84112 33.4338 5.81789 33.4489 5.80234C33.4565 5.79457 33.4622 5.78872 33.466 5.78484C33.4679 5.7829 33.4693 5.78145 33.4702 5.7805C33.4707 5.78003 33.471 5.77968 33.4712 5.77946C33.4713 5.77935 33.4714 5.77928 33.4715 5.77922C33.4715 5.77918 33.4715 5.77917 33.1139 5.42975C32.7562 5.08033 32.7562 5.08039 32.7561 5.08047C32.756 5.08054 32.7559 5.08066 32.7558 5.0808C32.7555 5.08108 32.7551 5.08149 32.7546 5.08202C32.7536 5.08309 32.752 5.08465 32.75 5.08671C32.746 5.09083 32.7401 5.09693 32.7323 5.10495C32.7166 5.12099 32.6936 5.14473 32.6635 5.17576C32.6034 5.23782 32.5153 5.32905 32.4028 5.44615C32.178 5.68034 31.856 6.01813 31.4665 6.43323C30.6876 7.26317 29.6376 8.40348 28.5541 9.64369C27.4715 10.8828 26.3508 12.2271 25.4329 13.4642C24.5271 14.6848 23.7786 15.8531 23.4897 16.7274L24.4391 17.0412ZM32.756 5.87804C34.6501 7.82004 35.3599 10.6271 35.9906 18.659L36.9876 18.5807C36.3629 10.6263 35.661 7.42431 33.4718 5.17981L32.756 5.87804ZM35.9893 18.7095C36.9553 24.0067 37.6827 28.5814 37.9993 32.5175C38.316 36.4561 38.2183 39.7246 37.5529 42.4184C36.8905 45.1 35.6663 47.2105 33.7172 48.8525C31.7596 50.5018 29.0365 51.7072 25.3309 52.5114L25.5429 53.4886C29.3432 52.6639 32.237 51.4072 34.3615 49.6173C36.4948 47.8202 37.8183 45.5143 38.5238 42.6582C39.2263 39.8142 39.3166 36.4234 38.996 32.4373C38.6753 28.4487 37.9402 23.8331 36.9731 18.5301L35.9893 18.7095ZM25.8113 53.3314C26.9402 52.0562 27.527 51.0967 27.9011 50.1579C28.2631 49.2495 28.4251 48.3452 28.6998 47.31L27.7332 47.0536C27.4311 48.192 27.3049 48.9526 26.9721 49.7877C26.6514 50.5925 26.1367 51.4552 25.0625 52.6686L25.8113 53.3314ZM26.4967 41.7159C26.0722 43.132 25.5655 43.8515 25.0855 44.2004C24.6269 44.5338 24.1189 44.5812 23.5376 44.4643C22.9334 44.3429 22.3218 44.0604 21.6765 43.7845C21.3656 43.6517 21.0448 43.5202 20.7364 43.4295C20.4305 43.3395 20.1001 43.2779 19.7749 43.3127L19.8813 44.3071C20.0194 44.2923 20.2049 44.3155 20.4542 44.3888C20.7009 44.4614 20.9745 44.572 21.2835 44.7041C21.8781 44.9582 22.6087 45.2976 23.3405 45.4447C24.0952 45.5965 24.9171 45.5591 25.6735 45.0093C26.4085 44.475 27.0021 43.5126 27.4546 42.0031L26.4967 41.7159ZM12.2016 42.0031C12.6541 43.5126 13.2476 44.475 13.9826 45.0093C14.7391 45.5591 15.5609 45.5965 16.3156 45.4447C17.0474 45.2976 17.7781 44.9582 18.3727 44.7041C18.6817 44.572 18.9552 44.4614 19.202 44.3888C19.4512 44.3155 19.6368 44.2923 19.7749 44.3071L19.8813 43.3127C19.5561 43.2779 19.2257 43.3395 18.9197 43.4295C18.6113 43.5202 18.2905 43.6517 17.9796 43.7845C17.3343 44.0604 16.7228 44.3429 16.1185 44.4643C15.5372 44.5812 15.0293 44.5338 14.5706 44.2004C14.0906 43.8515 13.5839 43.132 13.1595 41.7159L12.2016 42.0031ZM23.2643 44.8533C22.5857 46.0551 21.9619 46.671 21.4149 46.994C20.8758 47.3123 20.3618 47.376 19.8281 47.376V48.376C20.4526 48.376 21.1689 48.3006 21.9234 47.8551C22.67 47.4142 23.4029 46.6417 24.1351 45.345L23.2643 44.8533ZM15.5211 45.345C16.2533 46.6417 16.9862 47.4142 17.7328 47.8551C18.4872 48.3006 19.2036 48.376 19.8281 48.376V47.376C19.2944 47.376 18.7803 47.3123 18.2412 46.994C17.6942 46.671 17.0705 46.0551 16.3919 44.8533L15.5211 45.345ZM6.86615 5.47783C6.41257 4.53298 6.15815 3.83997 6.03313 3.18576C5.90893 2.53584 5.90715 1.89643 5.99451 1.05142L4.99981 0.948582C4.90673 1.84892 4.90194 2.59395 5.05091 3.37346C5.19905 4.14869 5.49396 4.93011 5.96465 5.9106L6.86615 5.47783ZM33.9562 5.9106C34.4269 4.93011 34.7218 4.14869 34.87 3.37346C35.019 2.59395 35.0142 1.84892 34.9211 0.948582L33.9264 1.05142C34.0137 1.89643 34.012 2.53584 33.8878 3.18576C33.7627 3.83997 33.5083 4.53298 33.0547 5.47783L33.9562 5.9106ZM7.04262 5.06824C6.59715 4.20492 6.34981 3.57642 6.22861 2.98636C6.10845 2.40139 6.10616 1.82441 6.19164 1.05522L5.19775 0.944777C5.10567 1.77345 5.10041 2.46391 5.24906 3.18757C5.39667 3.90615 5.68991 4.62749 6.15396 5.5268L7.04262 5.06824ZM33.7008 5.5268C34.1648 4.62749 34.458 3.90615 34.6057 3.18757C34.7543 2.46391 34.749 1.77345 34.657 0.944777L33.6631 1.05522C33.7486 1.82441 33.7463 2.40139 33.6261 2.98636C33.5049 3.57642 33.2576 4.20492 32.8121 5.06824L33.7008 5.5268ZM17.7651 35.6497C17.7651 35.2608 17.7702 35.3334 17.7651 34.9924L16.7652 35.0076C16.7703 35.3462 16.7651 35.2179 16.7651 35.6497H17.7651ZM17.7651 35C17.7651 33.8886 17.7229 33.0107 17.4787 32.3642C17.3504 32.0245 17.1624 31.7348 16.8899 31.5041C16.6207 31.2762 16.296 31.1287 15.9278 31.0303C15.2135 30.8395 14.2345 30.8108 12.9513 30.8172C11.6403 30.8238 9.98028 30.8687 7.80504 30.8522L7.79745 31.8522C9.97633 31.8687 11.6763 31.8236 12.9563 31.8172C14.2639 31.8107 15.1066 31.846 15.6697 31.9964C15.9403 32.0687 16.1182 32.161 16.2437 32.2673C16.3659 32.3708 16.4646 32.5095 16.5432 32.7176C16.7128 33.1666 16.7651 33.8614 16.7651 35H17.7651ZM16.7651 34.5257V35H17.7651V34.5257H16.7651ZM17.2651 34.5C15.1113 34.5 13.605 34.4976 12.4456 34.2602C11.3298 34.0316 10.5677 33.5907 9.89963 32.7L9.09963 33.3C9.9316 34.4093 10.9195 34.9684 12.245 35.2398C13.527 35.5024 15.1534 35.5 17.2651 35.5V34.5ZM14.2874 32C14.2874 32.6872 14.1449 33.1554 13.974 33.4346C13.8029 33.7144 13.6324 33.7703 13.5437 33.7714C13.4581 33.7723 13.2928 33.7238 13.1243 33.4497C12.9548 33.1739 12.8114 32.7034 12.8114 32H11.8114C11.8114 32.8251 11.9776 33.4937 12.2723 33.9733C12.5681 34.4545 13.0217 34.7774 13.5552 34.7713C14.0855 34.7652 14.534 34.4355 14.8271 33.9564C15.1205 33.4768 15.2874 32.8129 15.2874 32H14.2874ZM23.2341 35.6497C23.2341 35.2179 23.2289 35.3462 23.2341 35.0076L22.2342 34.9924C22.229 35.3334 22.2341 35.2608 22.2341 35.6497H23.2341ZM23.2341 35C23.2341 33.8614 23.2864 33.1666 23.456 32.7176C23.5346 32.5095 23.6333 32.3708 23.7555 32.2673C23.881 32.161 24.059 32.0687 24.3295 31.9964C24.8926 31.846 25.7353 31.8107 27.043 31.8172C28.3229 31.8236 30.0229 31.8687 32.2018 31.8522L32.1942 30.8522C30.019 30.8687 28.3589 30.8238 27.048 30.8172C25.7648 30.8108 24.7858 30.8395 24.0715 31.0303C23.7032 31.1287 23.3785 31.2762 23.1094 31.5041C22.8369 31.7348 22.6488 32.0245 22.5205 32.3642C22.2763 33.0107 22.2341 33.8886 22.2341 35H23.2341ZM22.2341 34.5257V35H23.2341V34.5257H22.2341ZM22.7341 35.5C24.8458 35.5 26.4722 35.5024 27.7542 35.2398C29.0798 34.9684 30.0676 34.4093 30.8996 33.3L30.0996 32.7C29.4316 33.5907 28.6695 34.0316 27.5536 34.2602C26.3943 34.4976 24.8879 34.5 22.7341 34.5V35.5ZM24.7487 32C24.7487 32.8129 24.9156 33.4768 25.2091 33.9564C25.5022 34.4355 25.9506 34.7652 26.481 34.7713C27.0144 34.7774 27.4681 34.4545 27.7638 33.9733C28.0586 33.4937 28.2247 32.8251 28.2247 32H27.2247C27.2247 32.7034 27.0814 33.1739 26.9119 33.4497C26.7434 33.7238 26.578 33.7723 26.4925 33.7714C26.4038 33.7703 26.2333 33.7144 26.0621 33.4346C25.8913 33.1554 25.7487 32.6872 25.7487 32H24.7487Z" fill="#101010"/>
</svg>
