<svg width="24" height="24" viewBox="0 0 24 24" fill="none" xmlns="http://www.w3.org/2000/svg">
<path d="M20.8524 23.5625H20.6983C2.89051 22.5384 0.362069 7.51281 0.00863187 2.92719C-0.0198468 2.57065 0.022306 2.212 0.132675 1.87178C0.243044 1.53156 0.419459 1.21646 0.651813 0.944541C0.884168 0.672619 1.16789 0.449217 1.48674 0.287136C1.80558 0.125054 2.15327 0.0274791 2.50988 8.49692e-07H7.50332C7.86633 -0.000350561 8.22107 0.108306 8.52161 0.311897C8.82215 0.515488 9.05463 0.804632 9.18895 1.14188L10.5664 4.53125C10.6991 4.86071 10.732 5.22188 10.6611 5.5699C10.5902 5.91791 10.4186 6.23742 10.1677 6.48875L8.23738 8.43719C8.53891 10.1507 9.35949 11.7302 10.5881 12.9621C11.8167 14.1939 13.3941 15.0186 15.1068 15.3247L17.0733 13.3763C17.3284 13.1281 17.651 12.9605 18.0007 12.8944C18.3504 12.8284 18.7118 12.8667 19.0399 13.0047L22.4564 14.3731C22.7886 14.5117 23.072 14.746 23.2705 15.0462C23.469 15.3464 23.5737 15.6989 23.5711 16.0588V20.8438C23.5711 21.5648 23.2847 22.2563 22.7748 22.7662C22.265 23.2761 21.5734 23.5625 20.8524 23.5625ZM2.72738 1.8125C2.48703 1.8125 2.25652 1.90798 2.08657 2.07794C1.91661 2.24789 1.82113 2.4784 1.82113 2.71875V2.79125C2.23801 8.15625 4.91145 20.8438 20.798 21.75C20.9171 21.7574 21.0364 21.7411 21.1492 21.7023C21.262 21.6634 21.366 21.6027 21.4552 21.5235C21.5444 21.4444 21.6172 21.3484 21.6693 21.2411C21.7213 21.1338 21.7517 21.0172 21.7586 20.8981V16.0588L18.3421 14.6903L15.7411 17.2731L15.3061 17.2188C7.42176 16.2309 6.35238 8.34656 6.35238 8.265L6.29801 7.83L8.87176 5.22906L7.51238 1.8125H2.72738Z" fill="black"/>
</svg>
