<svg width="30" height="26" viewBox="0 0 30 26" fill="none" xmlns="http://www.w3.org/2000/svg">
<path d="M27.7387 1C28.6016 1 29.2525 1.75688 28.9043 3.16467L24.681 23.0706C24.3858 24.4859 23.5305 24.8265 22.3498 24.1681L12.2757 16.7279C12.2366 16.6999 12.2048 16.663 12.1829 16.6202C12.1609 16.5774 12.1495 16.53 12.1495 16.482C12.1495 16.4339 12.1609 16.3865 12.1829 16.3437C12.2048 16.3009 12.2366 16.264 12.2757 16.236L23.9089 5.73049C24.4388 5.26123 23.7954 5.03416 23.0991 5.45802L8.49889 14.6692C8.45461 14.6981 8.40434 14.7165 8.35188 14.7231C8.29942 14.7296 8.24616 14.7242 8.19614 14.7071L1.9973 12.7468C0.61978 12.3456 0.61978 11.3995 2.30762 10.7259L27.1105 1.15894C27.3072 1.06458 27.5208 1.01053 27.7387 1Z" stroke="black" stroke-width="2" stroke-linecap="round" stroke-linejoin="round"/>
</svg>
