<svg xmlns="http://www.w3.org/2000/svg" version="1.1" xmlns:xlink="http://www.w3.org/1999/xlink" width="2800" height="2800"><svg xmlns="http://www.w3.org/2000/svg" version="1.1" xmlns:xlink="http://www.w3.org/1999/xlink" width="2800" height="2800"><svg width="2800" height="2800" viewBox="0 0 2800 2800" fill="none" xmlns="http://www.w3.org/2000/svg">
<g clip-path="url(#clip0_211_3)">
<rect width="2800" height="2800" fill="white"></rect>
<path d="M1399.06 2015.34V2035.34V2035.34V2015.34ZM1399.06 2159.42L1379.98 2165.45C1382.61 2173.77 1390.33 2179.42 1399.06 2179.42C1407.78 2179.42 1415.5 2173.77 1418.13 2165.45L1399.06 2159.42ZM1294.81 2043.98L1288.64 2063.01V2063.01L1294.81 2043.98ZM1063.31 1866.33L1083.01 1869.79L1089.94 1830.4L1070.24 1826.93L1063.31 1866.33ZM761.149 1633.18L760.605 1613.19L761.149 1653.18V1633.18ZM1249.34 1864.42V1884.42H1289.34V1864.42H1249.34ZM1727.89 1826.93L1708.19 1830.4L1715.12 1869.79L1734.81 1866.33L1727.89 1826.93ZM2036.98 1633.18V1653.18L2037.52 1613.19L2036.98 1633.18ZM1508.79 1864.42V1884.42H1548.79V1864.42H1508.79ZM1175.94 835.782L1156.13 838.567L1161.7 878.177L1181.51 875.392L1175.94 835.782ZM806.975 949.015L791.617 961.827L817.24 992.542L832.598 979.731L806.975 949.015ZM1158.84 860.963C1162.3 871.453 1173.61 877.151 1184.1 873.691C1194.59 870.23 1200.29 858.922 1196.83 848.432L1158.84 860.963ZM700.839 224.393C693.128 216.484 680.466 216.324 672.557 224.035C664.648 231.746 664.488 244.408 672.199 252.317L700.839 224.393ZM1098.76 2798L1094.51 2817.54C1102.96 2819.38 1111.63 2815.58 1116.01 2808.12C1120.39 2800.66 1119.47 2791.24 1113.75 2784.76L1098.76 2798ZM1967.29 979.731L1982.65 992.542L2008.27 961.827L1992.91 949.015L1967.29 979.731ZM1602.17 848.432C1598.71 858.922 1604.41 870.23 1614.9 873.691C1625.39 877.151 1636.7 871.453 1640.16 860.963L1602.17 848.432ZM2126.8 252.317C2134.51 244.408 2134.35 231.746 2126.44 224.035C2118.53 216.324 2105.87 216.484 2098.16 224.393L2126.8 252.317ZM1700.24 2798L1685.25 2784.76C1679.53 2791.24 1678.61 2800.66 1682.99 2808.12C1687.37 2815.58 1696.04 2819.38 1704.49 2817.54L1700.24 2798ZM1802.03 2204.29L1807.76 2185.13L1769.44 2173.66L1763.7 2192.82L1802.03 2204.29ZM1399.06 2303.5L1396.92 2323.39L1399.06 2323.62L1401.19 2323.39L1399.06 2303.5ZM1034.41 2192.82L1028.68 2173.66L990.353 2185.13L996.084 2204.29L1034.41 2192.82ZM660.78 261.226L669.421 279.263L705.495 261.981L696.854 243.944L660.78 261.226ZM649.404 2.05257L651.456 -17.8418L611.667 -21.947L609.615 -2.05257L649.404 2.05257ZM2115.47 243.944L2106.83 261.981L2142.91 279.263L2151.55 261.226L2115.47 243.944ZM2202.71 -2.05257L2200.66 -21.947L2160.87 -17.8418L2162.92 2.05257L2202.71 -2.05257ZM670.857 240.396L680.013 258.177L715.575 239.864L706.419 222.083L670.857 240.396ZM659.995 2.20448L662.199 -17.6737L622.443 -22.0826L620.238 -2.20448L659.995 2.20448ZM2102.35 222.083L2093.2 239.864L2128.76 258.177L2137.92 240.396L2102.35 222.083ZM2188.53 -2.20447L2186.33 -22.0826L2146.57 -17.6737L2148.78 2.20447L2188.53 -2.20447ZM1399.06 2035.34C1427.11 2035.34 1452.51 2041.41 1469.97 2047.69C1478.76 2050.85 1484.96 2053.85 1488.18 2055.77C1490.19 2056.98 1489.65 2056.94 1488.39 2055.54C1487.97 2055.07 1487.12 2054.08 1486.28 2052.59C1485.51 2051.21 1484.11 2048.3 1483.92 2044.27C1483.69 2039.64 1485.15 2034.64 1488.64 2030.61C1491.73 2027.05 1495.25 2025.56 1497.14 2024.95L1509.47 2063.01C1511.76 2062.26 1515.59 2060.6 1518.87 2056.81C1522.56 2052.55 1524.11 2047.29 1523.87 2042.34C1523.49 2034.58 1518.91 2029.66 1518.08 2028.73C1515.14 2025.48 1511.35 2023.02 1508.71 2021.44C1502.61 2017.8 1493.88 2013.77 1483.49 2010.04C1462.57 2002.53 1432.57 1995.34 1399.06 1995.34V2035.34ZM1497.14 2024.95C1488.14 2027.87 1411.6 2053.29 1379.98 2153.4L1418.13 2165.45C1443.97 2083.59 1505.34 2064.34 1509.47 2063.01L1497.14 2024.95ZM1399.06 1995.34C1365.54 1995.34 1335.54 2002.53 1314.62 2010.04C1304.23 2013.77 1295.5 2017.8 1289.4 2021.44C1286.76 2023.02 1282.97 2025.48 1280.03 2028.73C1279.2 2029.66 1274.62 2034.58 1274.24 2042.34C1274 2047.29 1275.55 2052.55 1279.24 2056.81C1282.52 2060.6 1286.35 2062.26 1288.64 2063.01L1300.97 2024.95C1302.86 2025.56 1306.38 2027.05 1309.47 2030.61C1312.96 2034.64 1314.42 2039.64 1314.2 2044.27C1314 2048.3 1312.6 2051.21 1311.83 2052.59C1310.99 2054.08 1310.14 2055.07 1309.72 2055.54C1308.46 2056.94 1307.92 2056.98 1309.93 2055.77C1313.15 2053.85 1319.35 2050.85 1328.14 2047.69C1345.6 2041.41 1371 2035.34 1399.06 2035.34V1995.34ZM1288.64 2063.01C1292.77 2064.34 1354.14 2083.59 1379.98 2165.45L1418.13 2153.4C1386.51 2053.29 1309.98 2027.87 1300.97 2024.95L1288.64 2063.01ZM1070.24 1826.93C1047.98 1823.02 1030.86 1810.7 1014.07 1791.64C996.31 1771.48 982.149 1747.99 962.005 1720.58C942.765 1694.4 919.659 1667.26 887.46 1646.84C854.934 1626.21 814.329 1613.18 761.149 1613.18V1653.18C807.298 1653.18 840.371 1664.34 866.037 1680.62C892.029 1697.1 911.63 1719.58 929.773 1744.27C947.015 1767.73 964.917 1796.36 984.06 1818.09C1004.18 1840.93 1028.82 1860.27 1063.31 1866.33L1070.24 1826.93ZM1289.34 1864.42C1289.34 1842.49 1289.44 1822.14 1289.16 1803.65L1249.16 1804.26C1249.44 1822.34 1249.34 1842.19 1249.34 1864.42H1289.34ZM1289.16 1803.65C1288.51 1760.58 1285.89 1723.62 1272.97 1694.33C1259.17 1663.07 1234.72 1642.59 1196.46 1629.85C1159.46 1617.54 1108.33 1612.02 1038.67 1610.13C968.625 1608.23 877.852 1610 760.605 1613.19L761.692 1653.17C879.077 1649.98 968.793 1648.25 1037.59 1650.12C1106.76 1651.99 1152.82 1657.48 1183.83 1667.81C1213.59 1677.71 1227.99 1691.49 1236.37 1710.48C1245.62 1731.44 1248.51 1760.72 1249.16 1804.26L1289.16 1803.65ZM1267.98 1783.99L1267.8 1784L1270.52 1823.91L1270.7 1823.9L1267.98 1783.99ZM1267.79 1784C1162.8 1791.21 1105.75 1780.33 1070.21 1756.39C1035.08 1732.74 1016.77 1693.62 997.011 1630.74L958.85 1642.73C978.632 1705.69 1000.16 1757.45 1047.87 1789.57C1095.16 1821.42 1163.96 1831.23 1270.53 1823.91L1267.79 1784ZM1734.81 1866.33C1769.31 1860.27 1793.94 1840.93 1814.07 1818.09C1833.21 1796.36 1851.11 1767.73 1868.35 1744.27C1886.5 1719.58 1906.1 1697.1 1932.09 1680.62C1957.76 1664.34 1990.83 1653.18 2036.98 1653.18V1613.18C1983.8 1613.18 1943.19 1626.21 1910.67 1646.84C1878.47 1667.26 1855.36 1694.4 1836.12 1720.58C1815.98 1747.99 1801.82 1771.48 1784.05 1791.64C1767.27 1810.7 1750.15 1823.02 1727.89 1826.93L1734.81 1866.33ZM1548.79 1864.42C1548.79 1842.19 1548.69 1822.34 1548.96 1804.26L1508.97 1803.65C1508.69 1822.14 1508.79 1842.49 1508.79 1864.42H1548.79ZM1548.96 1804.26C1549.62 1760.72 1552.51 1731.44 1561.76 1710.48C1570.14 1691.49 1584.54 1677.71 1614.3 1667.81C1645.31 1657.48 1691.37 1651.99 1760.54 1650.12C1829.33 1648.25 1919.05 1649.98 2036.44 1653.17L2037.52 1613.19C1920.28 1610 1829.5 1608.23 1759.46 1610.13C1689.8 1612.02 1638.67 1617.54 1601.67 1629.85C1563.41 1642.59 1538.96 1663.07 1525.16 1694.33C1512.24 1723.62 1509.62 1760.58 1508.97 1803.65L1548.96 1804.26ZM1527.43 1823.9L1527.61 1823.91L1530.33 1784L1530.15 1783.99L1527.43 1823.9ZM1527.6 1823.91C1634.16 1831.23 1702.97 1821.42 1750.26 1789.57C1797.97 1757.45 1819.5 1705.69 1839.28 1642.73L1801.12 1630.74C1781.36 1693.62 1763.05 1732.74 1727.92 1756.39C1692.37 1780.33 1635.33 1791.21 1530.34 1784L1527.6 1823.91ZM1181.51 875.392C1345.4 852.344 1446.4 851.529 1616.61 875.393L1622.17 835.78C1448.2 811.389 1343.44 812.225 1175.94 835.782L1181.51 875.392ZM1069.75 897.257C1069.13 895.409 1068.5 893.571 1067.88 891.743L1030.04 904.71C1030.64 906.453 1031.23 908.206 1031.82 909.97L1069.75 897.257ZM1067.88 891.743C1029.1 778.58 976.821 704.005 870.975 570.983L839.674 595.888C945.108 728.391 993.623 798.452 1030.04 904.71L1067.88 891.743ZM1055.24 884.398C987.34 868.861 924.996 885.501 880.547 905.172C858.216 915.056 840.017 925.868 827.358 934.238C821.017 938.43 816.035 942.03 812.586 944.626C810.86 945.924 809.516 946.973 808.574 947.721C808.103 948.095 807.732 948.395 807.465 948.612C807.331 948.721 807.223 948.81 807.142 948.877C807.101 948.911 807.066 948.939 807.039 948.962C807.025 948.974 807.012 948.984 807.002 948.993C806.997 948.997 806.99 949.003 806.987 949.005C806.981 949.01 806.975 949.015 819.787 964.373C832.598 979.731 832.593 979.735 832.588 979.739C832.587 979.74 832.583 979.743 832.581 979.745C832.577 979.749 832.574 979.751 832.574 979.751C832.572 979.753 832.576 979.749 832.587 979.74C832.609 979.722 832.656 979.684 832.727 979.625C832.871 979.508 833.115 979.311 833.455 979.041C834.135 978.5 835.203 977.666 836.636 976.588C839.502 974.431 843.821 971.305 849.419 967.604C860.637 960.187 876.865 950.544 896.736 941.75C936.69 924.068 989.844 910.468 1046.32 923.391L1055.24 884.398ZM1063.39 884.38L1063.34 884.33L1034.57 912.124L1034.62 912.174L1063.39 884.38ZM1063.33 884.319C1024.18 843.861 993.197 818.2 961.967 799.629C930.751 781.066 900.2 770.152 863.215 758.278L850.988 796.364C887.475 808.077 914.403 817.883 941.522 834.009C968.627 850.127 996.836 873.125 1034.59 912.135L1063.33 884.319ZM1196.83 848.432C1181.69 802.563 1142.14 740.496 1093.49 674.797C1044.35 608.445 984.303 536.265 926.228 469.655C868.115 403.001 811.788 341.707 770.001 297.089C749.103 274.774 731.829 256.618 719.773 244.033C713.745 237.74 709.021 232.839 705.799 229.507C704.188 227.841 702.952 226.567 702.117 225.707C701.7 225.277 701.383 224.951 701.169 224.731C701.061 224.621 700.98 224.538 700.925 224.481C700.898 224.453 700.877 224.431 700.862 224.416C700.855 224.409 700.849 224.403 700.846 224.399C700.841 224.395 700.839 224.393 686.519 238.355C672.199 252.317 672.2 252.318 672.203 252.32C672.206 252.323 672.21 252.328 672.216 252.334C672.228 252.346 672.246 252.365 672.272 252.391C672.322 252.443 672.399 252.522 672.501 252.627C672.706 252.837 673.014 253.154 673.421 253.574C674.237 254.414 675.453 255.667 677.043 257.312C680.224 260.602 684.906 265.458 690.888 271.703C702.854 284.194 720.023 302.241 740.805 324.431C782.381 368.824 838.37 429.751 896.078 495.941C953.823 562.173 1013.1 633.458 1061.34 698.602C1110.07 764.399 1145.94 821.861 1158.84 860.963L1196.83 848.432ZM672.188 229.741C556.663 348.423 518.921 517.979 485.337 946.52L525.214 949.645C559.041 518.002 597.103 364.225 700.851 257.641L672.188 229.741ZM486.024 944.501C382.392 1513.9 328.002 1936.98 402.665 2239.86C440.249 2392.33 510.634 2515.06 623.92 2610.69C736.863 2706.04 891.086 2773.31 1094.51 2817.54L1103.01 2778.46C903.379 2735.04 755.99 2669.84 649.722 2580.13C543.797 2490.71 477.371 2375.8 441.502 2230.29C369.26 1937.23 421.395 1522.99 525.378 951.664L486.024 944.501ZM1113.75 2784.76C1055.69 2719.05 1027.55 2671.96 1009.96 2627.72C991.891 2582.28 984.865 2540.36 968.834 2479.82L930.167 2490.06C945.106 2546.47 953.557 2594.13 972.795 2642.51C992.514 2692.09 1023.52 2743.05 1083.77 2811.24L1113.75 2784.76ZM1768.07 909.97C1768.66 908.206 1769.25 906.453 1769.85 904.71L1732.01 891.743C1731.38 893.571 1730.76 895.409 1730.14 897.257L1768.07 909.97ZM1769.85 904.711C1806.27 798.452 1854.78 728.391 1960.21 595.888L1928.91 570.983C1823.07 704.005 1770.79 778.58 1732.01 891.743L1769.85 904.711ZM1753.57 923.391C1810.04 910.468 1863.2 924.068 1903.15 941.75C1923.02 950.544 1939.25 960.187 1950.47 967.604C1956.07 971.305 1960.39 974.431 1963.25 976.588C1964.69 977.666 1965.75 978.5 1966.43 979.041C1966.77 979.311 1967.02 979.508 1967.16 979.625C1967.23 979.684 1967.28 979.722 1967.3 979.74C1967.31 979.749 1967.32 979.753 1967.31 979.751C1967.31 979.751 1967.31 979.749 1967.31 979.745C1967.31 979.743 1967.3 979.74 1967.3 979.739C1967.3 979.735 1967.29 979.731 1980.1 964.373C1992.91 949.015 1992.91 949.01 1992.9 949.005C1992.9 949.003 1992.89 948.997 1992.89 948.993C1992.88 948.984 1992.86 948.974 1992.85 948.962C1992.82 948.939 1992.79 948.911 1992.75 948.877C1992.67 948.81 1992.56 948.721 1992.42 948.612C1992.16 948.395 1991.79 948.095 1991.31 947.721C1990.37 946.973 1989.03 945.924 1987.3 944.626C1983.85 942.03 1978.87 938.43 1972.53 934.238C1959.87 925.868 1941.67 915.056 1919.34 905.172C1874.89 885.501 1812.55 868.861 1744.64 884.398L1753.57 923.391ZM1765.27 912.174L1765.31 912.124L1736.55 884.33L1736.5 884.38L1765.27 912.174ZM1765.3 912.135C1803.05 873.125 1831.26 850.127 1858.37 834.009C1885.49 817.883 1912.41 808.077 1948.9 796.364L1936.67 758.278C1899.69 770.152 1869.14 781.066 1837.92 799.629C1806.69 818.2 1775.71 843.861 1736.56 884.319L1765.3 912.135ZM1640.16 860.963C1653.06 821.861 1688.93 764.399 1737.66 698.602C1785.9 633.458 1845.18 562.173 1902.92 495.941C1960.63 429.751 2016.62 368.824 2058.19 324.431C2078.98 302.241 2096.15 284.194 2108.11 271.703C2114.09 265.458 2118.78 260.602 2121.96 257.312C2123.55 255.667 2124.76 254.414 2125.58 253.574C2125.99 253.154 2126.29 252.837 2126.5 252.627C2126.6 252.522 2126.68 252.443 2126.73 252.391C2126.75 252.365 2126.77 252.346 2126.78 252.334C2126.79 252.328 2126.79 252.323 2126.8 252.32C2126.8 252.318 2126.8 252.317 2112.48 238.355C2098.16 224.393 2098.16 224.395 2098.15 224.399C2098.15 224.403 2098.15 224.409 2098.14 224.416C2098.12 224.431 2098.1 224.453 2098.07 224.481C2098.02 224.538 2097.94 224.621 2097.83 224.731C2097.62 224.951 2097.3 225.277 2096.88 225.707C2096.05 226.567 2094.81 227.841 2093.2 229.507C2089.98 232.839 2085.26 237.74 2079.23 244.033C2067.17 256.618 2049.9 274.774 2029 297.089C1987.21 341.707 1930.88 403.001 1872.77 469.655C1814.7 536.265 1754.65 608.445 1705.51 674.797C1656.86 740.496 1617.31 802.563 1602.17 848.432L1640.16 860.963ZM2098.15 257.641C2201.9 364.225 2239.96 518.002 2273.79 949.645L2313.66 946.52C2280.08 517.979 2242.34 348.423 2126.81 229.741L2098.15 257.641ZM2273.62 951.664C2377.6 1522.99 2429.74 1937.23 2357.5 2230.29C2321.63 2375.8 2255.2 2490.71 2149.28 2580.13C2043.01 2669.84 1895.62 2735.04 1695.99 2778.46L1704.49 2817.54C1907.91 2773.31 2062.14 2706.04 2175.08 2610.69C2288.37 2515.06 2358.75 2392.33 2396.34 2239.86C2471 1936.98 2416.61 1513.9 2312.98 944.501L2273.62 951.664ZM1715.23 2811.24C1775.48 2743.05 1806.49 2692.09 1826.21 2642.51C1845.44 2594.13 1853.89 2546.47 1868.83 2490.06L1830.17 2479.82C1814.13 2540.36 1807.11 2582.28 1789.04 2627.72C1771.45 2671.96 1743.31 2719.05 1685.25 2784.76L1715.23 2811.24ZM1763.7 2192.82C1740.72 2269.67 1712.91 2310.06 1685.38 2330.11C1658.72 2349.53 1629.3 2352.01 1596.91 2345.49C1563.59 2338.77 1529.94 2323.19 1495.64 2308.49C1478.95 2301.35 1462.05 2294.42 1445.91 2289.66C1429.87 2284.93 1413.11 2281.88 1396.92 2283.62L1401.19 2323.39C1409.88 2322.46 1420.83 2323.97 1434.6 2328.03C1448.27 2332.06 1463.28 2338.15 1479.89 2345.26C1512.16 2359.08 1550.58 2376.96 1589.01 2384.7C1628.36 2392.63 1670.35 2390.55 1708.93 2362.44C1746.65 2334.97 1777.93 2284.86 1802.03 2204.29L1763.7 2192.82ZM996.084 2204.29C1020.19 2284.86 1051.46 2334.97 1089.18 2362.44C1127.76 2390.55 1169.75 2392.63 1209.1 2384.7C1247.53 2376.96 1285.95 2359.08 1318.22 2345.26C1334.83 2338.15 1349.84 2332.06 1363.51 2328.03C1377.28 2323.97 1388.23 2322.46 1396.92 2323.39L1401.19 2283.62C1385 2281.88 1368.24 2284.93 1352.2 2289.66C1336.06 2294.42 1319.16 2301.35 1302.48 2308.49C1268.17 2323.19 1234.52 2338.77 1201.2 2345.49C1168.81 2352.01 1139.39 2349.53 1112.73 2330.11C1085.2 2310.06 1057.39 2269.67 1034.41 2192.82L996.084 2204.29ZM1589.53 2363.06C1552.72 2428.38 1518.47 2462.6 1487.73 2480.78C1457.31 2498.78 1428.33 2502.29 1399.06 2502.29V2542.29C1431.97 2542.29 1469.06 2538.31 1508.1 2515.21C1546.83 2492.3 1585.43 2451.81 1624.38 2382.69L1589.53 2363.06ZM1173.73 2382.69C1212.68 2451.81 1251.29 2492.3 1290.01 2515.21C1329.05 2538.31 1366.14 2542.29 1399.06 2542.29V2502.29C1369.78 2502.29 1340.8 2498.78 1310.38 2480.78C1279.64 2462.6 1245.39 2428.38 1208.58 2363.06L1173.73 2382.69ZM696.854 243.944C672.38 192.857 658.437 154.955 651.564 118.914C644.723 83.0435 644.673 47.905 649.404 2.05257L609.615 -2.05257C604.656 46.0084 604.445 85.3633 612.272 126.407C620.067 167.281 635.623 208.715 660.78 261.226L696.854 243.944ZM2151.55 261.226C2176.7 208.715 2192.26 167.281 2200.05 126.407C2207.88 85.3633 2207.67 46.0084 2202.71 -2.05257L2162.92 2.05257C2167.65 47.905 2167.6 83.0435 2160.76 118.914C2153.89 154.955 2139.95 192.857 2115.47 243.944L2151.55 261.226ZM706.419 222.083C682.37 175.381 668.77 140.92 662.079 108.279C655.43 75.8398 655.359 44.0058 659.995 2.20448L620.238 -2.20448C615.339 41.9712 615.109 78.3354 622.894 116.311C630.637 154.085 646.066 192.255 670.857 240.396L706.419 222.083ZM2137.92 240.396C2162.71 192.255 2178.14 154.085 2185.88 116.311C2193.66 78.3354 2193.43 41.9712 2188.53 -2.20447L2148.78 2.20447C2153.41 44.0058 2153.34 75.8398 2146.69 108.279C2140 140.92 2126.4 175.381 2102.35 222.083L2137.92 240.396Z" fill="#101010"></path>
</g>
<defs>
<clipPath id="clip0_211_3">
<rect width="2800" height="2800" fill="white"></rect>
</clipPath>
</defs>
</svg></svg><style>@media (prefers-color-scheme: light) { :root { filter: none; } }
@media (prefers-color-scheme: dark) { :root { filter: invert(100%); } }
</style></svg>